<?xml version="1.0" encoding="UTF-8" standalone="no"?>
<svg
   xmlns:dc="http://purl.org/dc/elements/1.1/"
   xmlns:cc="http://creativecommons.org/ns#"
   xmlns:rdf="http://www.w3.org/1999/02/22-rdf-syntax-ns#"
   xmlns:svg="http://www.w3.org/2000/svg"
   xmlns="http://www.w3.org/2000/svg"
   viewBox="0 0 1095.2533 1022.64"
   height="1022.64"
   width="1095.2533"
   xml:space="preserve"
   id="svg2"
   version="1.1"><metadata
     id="metadata8"><rdf:RDF><cc:Work
         rdf:about=""><dc:format>image/svg+xml</dc:format><dc:type
           rdf:resource="http://purl.org/dc/dcmitype/StillImage" /></cc:Work></rdf:RDF></metadata><defs
     id="defs6" /><g
     transform="matrix(1.3333333,0,0,-1.3333333,0,1022.64)"
     id="g10"><g
       transform="scale(0.1)"
       id="g12"><path
         id="path14"
         style="fill:#ffffff;fill-opacity:1;fill-rule:nonzero;stroke:none"
         d="m 0,2593.88 h 365.777 l 752.683,-984.77 601.37,786.76 -152.1,198.01 h 669.23 L 1118.46,1130.53 0,2593.88" /><path
         id="path16"
         style="fill:#ffffff;fill-opacity:1;fill-rule:nonzero;stroke:none"
         d="m 2212.83,1130.53 h 365.78 l 752.68,984.77 601.37,-786.76 -152.1,-198.01 h 669.23 L 3331.29,2593.88 2212.83,1130.53" /><path
         id="path18"
         style="fill:#ffffff;fill-opacity:1;fill-rule:nonzero;stroke:none"
         d="m 5191.1,1130.53 v 460.49 l -766.83,1003.27 h 365.82 l 546.32,-714.75 546.31,714.75 h 365.82 L 5481.74,1591.06 V 1130.53 H 5191.1" /><path
         id="path20"
         style="fill:#ffffff;fill-opacity:1;fill-rule:nonzero;stroke:none"
         d="m 7448.53,1130.53 c -204.87,0 -394.79,67.78 -534.77,190.87 -149.03,131.09 -231.1,316.06 -231.1,520.84 v 752.05 h 290.64 v -752.05 c 0,-247.92 195.42,-421.07 475.23,-421.07 135.54,0 257.28,41.81 342.82,117.71 85.37,75.72 132.38,183.45 132.38,303.36 v 752.05 h 290.63 v -752.05 c 0,-204.82 -82.07,-389.79 -231.1,-520.84 -139.93,-123.09 -329.84,-190.87 -534.73,-190.87" /><path
         id="path22"
         style="fill:#52afe6;fill-opacity:1;fill-rule:nonzero;stroke:none"
         d="M 2359.85,7669.84 H 1543.37 L 4107.24,3566.87 4515.4,4220.21 2359.85,7669.84" /><path
         id="path24"
         style="fill:#52afe6;fill-opacity:1;fill-rule:nonzero;stroke:none"
         d="M 3802.15,7669.84 H 2985.76 L 4828.33,4720.97 5236.59,5374.23 3802.15,7669.84" /><path
         id="path26"
         style="fill:#ffffff;fill-opacity:1;fill-rule:nonzero;stroke:none"
         d="m 6670.99,7669.8 -1121.45,-1794.69 -349.23,559.05 465.45,744.93 H 4734.75 L 4428.1,7669.8 h 2242.89" /><path
         id="path28"
         style="fill:#52afe6;fill-opacity:1;fill-rule:nonzero;stroke:none"
         d="m 1702.35,437.012 c 28.39,15.48 63.51,23.218 105.39,23.218 v -59.359 l -14.63,0.867 c -47.61,0 -84.88,-14.629 -111.84,-43.879 -26.96,-29.238 -40.42,-70.25 -40.42,-123.007 V 4.30078 h -61.09 V 456.789 h 58.5 v -88.598 c 14.33,30.391 35.7,53.329 64.09,68.821" /><path
         id="path30"
         style="fill:#52afe6;fill-opacity:1;fill-rule:nonzero;stroke:none"
         d="m 2425.83,76.1289 c 25.51,14.6211 45.45,35.4021 59.78,62.3711 14.33,26.949 21.51,57.641 21.51,92.051 0,34.41 -7.18,65.078 -21.51,92.039 -14.33,26.949 -34.27,47.75 -59.78,62.371 -25.53,14.629 -54.34,21.937 -86.45,21.937 -32.13,0 -60.95,-7.308 -86.46,-21.937 -25.53,-14.621 -45.59,-35.422 -60.22,-62.371 -14.62,-26.961 -21.93,-57.629 -21.93,-92.039 0,-34.41 7.31,-65.102 21.93,-92.051 14.63,-26.969 34.69,-47.75 60.22,-62.3711 25.51,-14.6289 54.33,-21.9375 86.46,-21.9375 32.11,0 60.92,7.3086 86.45,21.9375 z M 2221.52,29.6797 c -34.99,19.7812 -62.51,47.1601 -82.58,82.1483 -20.09,34.973 -30.12,74.543 -30.12,118.723 0,44.148 10.03,83.719 30.12,118.711 20.07,34.968 47.59,62.218 82.58,81.726 34.97,19.481 74.26,29.242 117.86,29.242 43.57,0 82.86,-9.761 117.85,-29.242 34.97,-19.508 62.37,-46.758 82.15,-81.726 19.79,-34.992 29.68,-74.563 29.68,-118.711 0,-44.18 -9.89,-83.75 -29.68,-118.723 C 2519.6,76.8398 2492.2,49.4609 2457.23,29.6797 2422.24,9.89063 2382.95,0 2339.38,0 c -43.6,0 -82.89,9.89063 -117.86,29.6797" /><path
         id="path32"
         style="fill:#52afe6;fill-opacity:1;fill-rule:nonzero;stroke:none"
         d="m 3249.52,76.1289 c 25.8,14.6211 46.02,35.4021 60.64,62.3711 14.63,26.949 21.94,57.641 21.94,92.051 0,34.41 -7.31,65.078 -21.94,92.039 -14.62,26.949 -34.84,47.75 -60.64,62.371 -25.81,14.629 -54.49,21.937 -86.03,21.937 -32.13,0 -60.95,-7.308 -86.46,-21.937 -25.52,-14.621 -45.59,-35.422 -60.21,-62.371 -14.63,-26.961 -21.94,-57.629 -21.94,-92.039 0,-34.41 7.31,-65.102 21.94,-92.051 14.62,-26.969 34.69,-47.75 60.21,-62.3711 25.51,-14.6289 54.33,-21.9375 86.46,-21.9375 31.54,0 60.22,7.3086 86.03,21.9375 z m 33.55,355.2811 c 34.41,-19.219 61.36,-46.308 80.86,-81.289 19.49,-34.992 29.25,-74.84 29.25,-119.57 0,-44.742 -9.76,-84.61 -29.25,-119.582 -19.5,-34.9885 -46.45,-62.2268 -80.86,-81.7307 C 3248.65,9.73828 3210.23,0 3167.79,0 c -37.85,0 -71.83,8.01953 -101.93,24.082 -30.12,16.0469 -54.36,39.2774 -72.7,69.6797 V 4.30078 h -58.5 V 642.609 h 61.09 V 370.77 c 18.92,29.242 43.14,51.468 72.68,66.671 29.53,15.188 62.65,22.789 99.36,22.789 42.44,0 80.86,-9.609 115.28,-28.82" /><path
         id="path34"
         style="fill:#52afe6;fill-opacity:1;fill-rule:nonzero;stroke:none"
         d="m 4030.2,76.1289 c 25.51,14.6211 45.45,35.4021 59.78,62.3711 14.33,26.949 21.51,57.641 21.51,92.051 0,34.41 -7.18,65.078 -21.51,92.039 -14.33,26.949 -34.27,47.75 -59.78,62.371 -25.53,14.629 -54.34,21.937 -86.45,21.937 -32.13,0 -60.95,-7.308 -86.46,-21.937 -25.53,-14.621 -45.59,-35.422 -60.22,-62.371 -14.62,-26.961 -21.93,-57.629 -21.93,-92.039 0,-34.41 7.31,-65.102 21.93,-92.051 14.63,-26.969 34.69,-47.75 60.22,-62.3711 25.51,-14.6289 54.33,-21.9375 86.46,-21.9375 32.11,0 60.92,7.3086 86.45,21.9375 z M 3825.89,29.6797 c -34.99,19.7812 -62.51,47.1601 -82.58,82.1483 -20.09,34.973 -30.12,74.543 -30.12,118.723 0,44.148 10.03,83.719 30.12,118.711 20.07,34.968 47.59,62.218 82.58,81.726 34.97,19.481 74.26,29.242 117.86,29.242 43.57,0 82.86,-9.761 117.85,-29.242 34.97,-19.508 62.37,-46.758 82.15,-81.726 19.79,-34.992 29.68,-74.563 29.68,-118.711 0,-44.18 -9.89,-83.75 -29.68,-118.723 C 4123.97,76.8398 4096.57,49.4609 4061.6,29.6797 4026.61,9.89063 3987.32,0 3943.75,0 c -43.6,0 -82.89,9.89063 -117.86,29.6797" /><path
         id="path36"
         style="fill:#52afe6;fill-opacity:1;fill-rule:nonzero;stroke:none"
         d="M 4777.34,31.8281 C 4765.86,21.5117 4751.66,13.6094 4734.76,8.17188 4717.83,2.73047 4700.19,0 4681.84,0 c -42.45,0 -75.13,11.4609 -98.06,34.4102 -22.95,22.9296 -34.41,55.3281 -34.41,97.2108 V 405.18 h -80.87 v 51.609 h 80.87 v 98.93 h 61.08 v -98.93 h 137.64 V 405.18 H 4610.45 V 135.051 c 0,-26.961 6.73,-47.4494 20.22,-61.5002 13.46,-14.0586 32.82,-21.082 58.06,-21.082 12.61,0 24.8,2 36.56,6.0195 11.75,4.0117 21.94,9.7539 30.54,17.2109 l 21.51,-43.8711" /><path
         id="path38"
         style="fill:#52afe6;fill-opacity:1;fill-rule:nonzero;stroke:none"
         d="m 5129.17,456.789 h 61.09 V 4.30078 h -61.09 z m -0.86,111.832 c -8.6,8.609 -12.91,18.93 -12.91,30.981 0,11.457 4.31,21.5 12.91,30.097 8.6,8.602 19.21,12.91 31.83,12.91 12.6,0 23.23,-4.168 31.83,-12.48 8.61,-8.32 12.9,-18.207 12.9,-29.668 0,-12.621 -4.29,-23.231 -12.9,-31.84 -8.6,-8.601 -19.23,-12.902 -31.83,-12.902 -12.62,0 -23.23,4.301 -31.83,12.902" /><path
         id="path40"
         style="fill:#52afe6;fill-opacity:1;fill-rule:nonzero;stroke:none"
         d="m 5668.97,29.2383 c -35.27,19.5039 -62.94,46.8906 -83.01,82.1597 -20.08,35.274 -30.11,74.973 -30.11,119.153 0,44.148 10.03,83.719 30.11,118.711 20.07,34.968 47.74,62.218 83.01,81.726 35.27,19.481 75.28,29.242 120.01,29.242 39,0 73.83,-7.601 104.52,-22.789 30.67,-15.203 54.91,-37.429 72.69,-66.671 l -45.59,-30.969 c -14.92,22.359 -33.84,39.14 -56.78,50.32 -22.95,11.188 -47.89,16.777 -74.84,16.777 -32.69,0 -62.08,-7.308 -88.17,-21.937 -26.11,-14.621 -46.46,-35.422 -61.09,-62.371 -14.62,-26.961 -21.93,-57.629 -21.93,-92.039 0,-34.992 7.31,-65.813 21.93,-92.481 14.63,-26.672 34.98,-47.32 61.09,-61.9411 26.09,-14.6289 55.48,-21.9375 88.17,-21.9375 26.95,0 51.89,5.4375 74.84,16.3477 22.94,10.8828 41.86,27.5312 56.78,49.8909 l 45.59,-30.9691 C 5948.41,60.2109 5924.04,37.9805 5893.07,22.7891 5862.1,7.58984 5827.39,0 5788.98,0 c -44.73,0 -84.74,9.73828 -120.01,29.2383" /><path
         id="path42"
         style="fill:#52afe6;fill-opacity:1;fill-rule:nonzero;stroke:none"
         d="m 6342.55,15.9102 c -33.55,10.6015 -59.79,23.9414 -78.72,40 l 27.53,48.1798 c 18.93,-14.9181 42.72,-27.0978 71.41,-36.5705 28.66,-9.4609 58.5,-14.1875 89.46,-14.1875 41.29,0 71.84,6.4571 91.62,19.3594 19.79,12.8984 29.67,31.0976 29.67,54.6176 0,16.632 -5.45,29.691 -16.34,39.14 -10.9,9.469 -24.67,16.629 -41.29,21.512 -16.64,4.871 -38.71,9.598 -66.24,14.199 -36.71,6.879 -66.24,13.899 -88.61,21.07 -22.36,7.172 -41.44,19.36 -57.21,36.559 -15.77,17.211 -23.65,41 -23.65,71.402 0,37.86 15.77,68.821 47.32,92.911 31.53,24.089 75.4,36.128 131.61,36.128 29.25,0 58.5,-3.871 87.75,-11.609 29.25,-7.742 53.34,-17.93 72.26,-30.543 l -26.67,-49.027 c -37.28,25.801 -81.72,38.711 -133.34,38.711 -39,0 -68.38,-6.891 -88.18,-20.653 -19.78,-13.757 -29.67,-31.828 -29.67,-54.199 0,-17.199 5.59,-30.969 16.77,-41.289 11.19,-10.32 25.08,-17.93 41.73,-22.793 16.62,-4.879 39.57,-9.887 68.82,-15.058 36.13,-6.879 65.08,-13.758 86.88,-20.649 21.79,-6.879 40.44,-18.641 55.92,-35.269 15.48,-16.641 23.22,-39.571 23.22,-68.821 0,-39.5701 -16.49,-70.9724 -49.46,-94.1912 C 6552.16,11.6094 6506.43,0 6447.93,0 6411.22,0 6376.1,5.28906 6342.55,15.9102" /></g></g></svg>